<?xml version="1.0" encoding="utf-8"?>
<!-- Generator: Adobe Illustrator 21.0.2, SVG Export Plug-In . SVG Version: 6.00 Build 0)  -->
<svg version="1.1" id="Private" xmlns="http://www.w3.org/2000/svg" xmlns:xlink="http://www.w3.org/1999/xlink" x="0px" y="0px"
	 viewBox="0 0 32 32" style="enable-background:new 0 0 32 32;" xml:space="preserve">
<style type="text/css">
	.Yellow{fill:#EAB54F;}
</style>
<path class="Yellow" d="M22,14V8c0-3.3-2.7-6-6-6s-6,2.7-6,6v6H6v16h20V14H22z M18,26h-4l1.4-4.1c-0.8-0.3-1.4-1-1.4-1.9
	c0-1.1,0.9-2,2-2s2,0.9,2,2c0,0.9-0.6,1.6-1.4,1.9L18,26z M12,14V8c0-2.2,1.8-4,4-4s4,1.8,4,4v6H12z"/>
</svg>
