<?xml version="1.0" encoding="utf-8"?>
<!-- Generator: Adobe Illustrator 21.0.2, SVG Export Plug-In . SVG Version: 6.00 Build 0)  -->
<svg version="1.1" id="Detail" xmlns="http://www.w3.org/2000/svg" xmlns:xlink="http://www.w3.org/1999/xlink" x="0px" y="0px"
	 viewBox="0 0 32 32" style="enable-background:new 0 0 32 32;" xml:space="preserve">
<style type="text/css">
	.Blue{fill:#4D82B8;}
	.Grey{fill:#838383;}
</style>
<path class="Grey" d="M14.3,24H4V2h18v12c0.7,0,1.4,0.1,2,0.3V0H2v26h13.1C14.7,25.4,14.4,24.7,14.3,24z"/>
<path class="Blue" d="M6,20h2v2H6V20z M20,12H10v2h10V12z M16.7,16H10v2h5.1C15.5,17.2,16.1,16.6,16.7,16z M20,8H10v2h10V8z M20,4
	H10v2h10V4z M6,6h2V4H6V6z M10,20v2h4c0-0.7,0.1-1.4,0.3-2H10z M6,14h2v-2H6V14z M6,18h2v-2H6V18z M6,10h2V8H6V10z M31.6,29.9
	L27,25.3c0.6-0.9,1-2.1,1-3.3c0-3.3-2.7-6-6-6c-3.3,0-6,2.7-6,6c0,3.3,2.7,6,6,6c1.2,0,2.3-0.4,3.3-1l4.6,4.6c0.5,0.5,1.3,0.5,1.7,0
	C32.1,31.2,32.1,30.4,31.6,29.9z M22,26c-2.2,0-4-1.8-4-4s1.8-4,4-4s4,1.8,4,4S24.2,26,22,26z"/>
</svg>
