<?xml version="1.0" encoding="utf-8"?>
<!-- Generator: Adobe Illustrator 21.0.2, SVG Export Plug-In . SVG Version: 6.00 Build 0)  -->
<svg version="1.1" id="Prioritized" xmlns="http://www.w3.org/2000/svg" xmlns:xlink="http://www.w3.org/1999/xlink" x="0px"
	 y="0px" viewBox="0 0 32 32" style="enable-background:new 0 0 32 32;" xml:space="preserve">
<style type="text/css">
	.Red{fill:#DD7154;}
</style>
<path class="Red" d="M18,27c0,1.7-1.3,3-3,3s-3-1.3-3-3s1.3-3,3-3S18,25.3,18,27z M14,19c0,0.6,0.4,1,1,1s1-0.4,1-1l1.9-13.2
	C18,5.5,18,5.3,18,5c0-1.7-1.3-3-3-3s-3,1.3-3,3c0,0.3,0,0.5,0.1,0.8L14,19z"/>
</svg>
