<?xml version="1.0" encoding="utf-8"?>
<!-- Generator: Adobe Illustrator 21.0.2, SVG Export Plug-In . SVG Version: 6.00 Build 0)  -->
<svg version="1.1" id="Refund" xmlns="http://www.w3.org/2000/svg" xmlns:xlink="http://www.w3.org/1999/xlink" x="0px" y="0px"
	 viewBox="0 0 32 32" style="enable-background:new 0 0 32 32;" xml:space="preserve">
<style type="text/css">
	.Red{fill:#DD7154;}
	.Blue{fill:#4D82B8;}
</style>
<path class="Red" d="M20,26h8v2v3c0,0.5-0.5,1-1,1H3c-0.5,0-1-0.5-1-1V9c0-0.5,0.5-1,1-1h1v1.8l7,7l7-7V8h9c0,0,1,0,1,1v4.9
	c0,0,0,0.1-0.1,0.1H20c-3.3,0-6,2.7-6,6S16.7,26,20,26z M30,17v6c0,0.5-0.5,1-1,1h-9c-2.2,0-4-1.8-4-4c0-2.2,1.8-4,4-4h9
	C29.5,16,30,16.5,30,17z M22,20c0-1.1-0.9-2-2-2s-2,0.9-2,2c0,1.1,0.9,2,2,2S22,21.1,22,20z"/>
<path class="Blue" d="M10,6v4L6,6v3l5,5l5-5V6l-4,4V6c0-2.2,1.8-4,4-4h4V0h-4C12.7,0,10,2.7,10,6z"/>
</svg>
