<?xml version="1.0" encoding="utf-8"?>
<!-- Generator: Adobe Illustrator 21.0.2, SVG Export Plug-In . SVG Version: 6.00 Build 0)  -->
<svg version="1.1" id="Custom" xmlns="http://www.w3.org/2000/svg" xmlns:xlink="http://www.w3.org/1999/xlink" x="0px" y="0px"
	 viewBox="0 0 32 32" style="enable-background:new 0 0 32 32;" xml:space="preserve">
<style type="text/css">
	.Blue{fill:#4D82B8;}
</style>
<path class="Blue" d="M32,18v-4l-4.3-0.7c-0.3-1.3-0.8-2.5-1.5-3.6l2.5-3.6l-2.8-2.8l-3.6,2.5c-1.1-0.7-2.3-1.2-3.6-1.5L18,0h-4
	l-0.7,4.3C12,4.6,10.8,5.1,9.7,5.8L6.1,3.3L3.3,6.1l2.5,3.6c-0.7,1.1-1.2,2.3-1.5,3.6L0,14v4l4.3,0.7c0.3,1.3,0.8,2.5,1.5,3.6
	l-2.5,3.6l2.8,2.8l3.6-2.5c1.1,0.7,2.3,1.2,3.6,1.5L14,32h4l0.7-4.3c1.3-0.3,2.5-0.8,3.6-1.5l3.6,2.5l2.8-2.8l-2.5-3.6
	c0.7-1.1,1.2-2.3,1.5-3.6L32,18z M16,20c-2.2,0-4-1.8-4-4s1.8-4,4-4s4,1.8,4,4S18.2,20,16,20z"/>
</svg>
