<?xml version="1.0" encoding="utf-8"?>
<!-- Generator: Adobe Illustrator 21.0.2, SVG Export Plug-In . SVG Version: 6.00 Build 0)  -->
<svg version="1.1" id="ThisWeek" xmlns="http://www.w3.org/2000/svg" xmlns:xlink="http://www.w3.org/1999/xlink" x="0px" y="0px"
	 viewBox="0 0 32 32" style="enable-background:new 0 0 32 32;" xml:space="preserve">
<style type="text/css">
	.Grey{fill:#838383;}
	.Red{fill:#DD7154;}
	.st0{opacity:0.35;}
</style>
<path class="Grey" d="M2,0v30h26V0H2z M26,12v2v6v2v6h-6h-2h-6h-2H4v-6v-2v-6v-2V6h6h2h6h2h6V12z"/>
<g class="st0">
	<path class="Grey" d="M26,14v-2h-6V6h-2v6h-6V6h-2v6H4v2h6v6H4v2h6v6h2v-6h6v6h2v-6h6v-2h-6v-6H26z M18,20h-6v-6h6V20z"/>
</g>
<path class="Red" d="M0,10v14h30V10H0z M26,20H4v-6h22V20z"/>
</svg>
